<mxfile host="65bd71144e">
    <diagram id="oogcLGE_UaVdGzRbsTCw" name="业务实体">
        <mxGraphModel dx="1086" dy="689" grid="1" gridSize="10" guides="1" tooltips="1" connect="1" arrows="1" fold="1" page="1" pageScale="1" pageWidth="827" pageHeight="1169" math="0" shadow="0">
            <root>
                <mxCell id="0"/>
                <mxCell id="1" parent="0"/>
                <mxCell id="18" value="" style="rounded=0;whiteSpace=wrap;html=1;" vertex="1" parent="1">
                    <mxGeometry x="20" y="950" width="740" height="190" as="geometry"/>
                </mxCell>
                <mxCell id="13" value="" style="rounded=0;whiteSpace=wrap;html=1;" vertex="1" parent="1">
                    <mxGeometry x="20" y="530" width="740" height="190" as="geometry"/>
                </mxCell>
                <mxCell id="2" value="程序猿" style="shape=umlActor;verticalLabelPosition=bottom;verticalAlign=top;html=1;" vertex="1" parent="1">
                    <mxGeometry x="130" y="600" width="30" height="60" as="geometry"/>
                </mxCell>
                <mxCell id="3" value="组织管理者" style="shape=umlActor;verticalLabelPosition=bottom;verticalAlign=top;html=1;" vertex="1" parent="1">
                    <mxGeometry x="250" y="600" width="30" height="60" as="geometry"/>
                </mxCell>
                <mxCell id="4" value="模板管理者" style="shape=umlActor;verticalLabelPosition=bottom;verticalAlign=top;html=1;" vertex="1" parent="1">
                    <mxGeometry x="360" y="600" width="30" height="60" as="geometry"/>
                </mxCell>
                <mxCell id="5" value="项目管理者" style="shape=umlActor;verticalLabelPosition=bottom;verticalAlign=top;html=1;" vertex="1" parent="1">
                    <mxGeometry x="470" y="600" width="30" height="60" as="geometry"/>
                </mxCell>
                <mxCell id="6" value="用户" style="ellipse;shape=umlEntity;whiteSpace=wrap;html=1;" vertex="1" parent="1">
                    <mxGeometry x="70" y="1020" width="80" height="80" as="geometry"/>
                </mxCell>
                <mxCell id="7" value="组织" style="ellipse;shape=umlEntity;whiteSpace=wrap;html=1;" vertex="1" parent="1">
                    <mxGeometry x="170" y="1020" width="80" height="80" as="geometry"/>
                </mxCell>
                <mxCell id="8" value="工作空间" style="ellipse;shape=umlEntity;whiteSpace=wrap;html=1;" vertex="1" parent="1">
                    <mxGeometry x="374" y="1020" width="80" height="80" as="geometry"/>
                </mxCell>
                <mxCell id="9" value="项目" style="ellipse;shape=umlEntity;whiteSpace=wrap;html=1;" vertex="1" parent="1">
                    <mxGeometry x="270" y="1020" width="80" height="80" as="geometry"/>
                </mxCell>
                <mxCell id="10" value="空间模板" style="ellipse;shape=umlEntity;whiteSpace=wrap;html=1;" vertex="1" parent="1">
                    <mxGeometry x="480" y="1020" width="80" height="80" as="geometry"/>
                </mxCell>
                <mxCell id="11" value="数据空间" style="ellipse;shape=umlEntity;whiteSpace=wrap;html=1;" vertex="1" parent="1">
                    <mxGeometry x="600" y="1020" width="80" height="80" as="geometry"/>
                </mxCell>
                <mxCell id="14" value="业务工人" style="text;html=1;align=center;verticalAlign=middle;resizable=0;points=[];autosize=1;strokeColor=none;fillColor=none;" vertex="1" parent="1">
                    <mxGeometry x="30" y="540" width="70" height="30" as="geometry"/>
                </mxCell>
                <mxCell id="15" value="" style="rounded=0;whiteSpace=wrap;html=1;" vertex="1" parent="1">
                    <mxGeometry x="20" y="750" width="740" height="160" as="geometry"/>
                </mxCell>
                <mxCell id="16" value="系统实体" style="text;html=1;align=center;verticalAlign=middle;resizable=0;points=[];autosize=1;strokeColor=none;fillColor=none;" vertex="1" parent="1">
                    <mxGeometry x="30" y="770" width="70" height="30" as="geometry"/>
                </mxCell>
                <mxCell id="17" value="CodePod" style="ellipse;shape=umlEntity;whiteSpace=wrap;html=1;" vertex="1" parent="1">
                    <mxGeometry x="110" y="810" width="80" height="80" as="geometry"/>
                </mxCell>
                <mxCell id="19" value="数据实体" style="text;html=1;align=center;verticalAlign=middle;resizable=0;points=[];autosize=1;strokeColor=none;fillColor=none;" vertex="1" parent="1">
                    <mxGeometry x="30" y="960" width="70" height="30" as="geometry"/>
                </mxCell>
                <mxCell id="20" value="微信公众号平台" style="ellipse;shape=umlEntity;whiteSpace=wrap;html=1;" vertex="1" parent="1">
                    <mxGeometry x="260" y="810" width="80" height="80" as="geometry"/>
                </mxCell>
            </root>
        </mxGraphModel>
    </diagram>
</mxfile>